<svg width="158" height="42" viewBox="0 0 158 42" fill="none" xmlns="http://www.w3.org/2000/svg">
<path d="M19.1031 0H45.0866L25.9835 28.3146H0L19.1031 0Z" fill="#007AFF"/>
<path d="M20.2399 30.9409L12.8408 41.9078H40.0569L59.16 13.5933H39.0728L27.3688 30.9409H20.2399Z" fill="#312ECB"/>
<path d="M74.9369 32L83.5228 10.6717H86.8904L95.446 32H91.0469L84.433 14.4944H85.9499L79.245 32H74.9369ZM79.4877 28.0256V24.5669H90.9558V28.0256H79.4877ZM101.65 32.3034C100.294 32.3034 99.0809 31.9697 98.0089 31.3022C96.937 30.6347 96.0875 29.7246 95.4605 28.5717C94.8537 27.4188 94.5503 26.1244 94.5503 24.6883C94.5503 23.232 94.8537 21.9275 95.4605 20.7746C96.0875 19.6217 96.9269 18.7115 97.9786 18.0441C99.0506 17.3766 100.274 17.0429 101.65 17.0429C102.701 17.0429 103.642 17.2553 104.471 17.68C105.321 18.1047 105.998 18.7014 106.504 19.47C107.03 20.2184 107.313 21.0679 107.353 22.0185V27.2368C107.313 28.1874 107.04 29.047 106.534 29.8156C106.029 30.5842 105.351 31.191 104.501 31.6359C103.652 32.0809 102.701 32.3034 101.65 32.3034ZM102.317 28.6324C103.065 28.6324 103.713 28.4706 104.259 28.1469C104.825 27.8031 105.26 27.3379 105.563 26.7514C105.887 26.1446 106.049 25.4468 106.049 24.658C106.049 23.8894 105.887 23.2118 105.563 22.6253C105.26 22.0185 104.825 21.5533 104.259 21.2297C103.713 20.8858 103.076 20.7139 102.347 20.7139C101.599 20.7139 100.942 20.8858 100.375 21.2297C99.8293 21.5735 99.3944 22.0387 99.0708 22.6253C98.7674 23.2118 98.6157 23.8894 98.6157 24.658C98.6157 25.4468 98.7674 26.1446 99.0708 26.7514C99.3944 27.3379 99.8394 27.8031 100.406 28.1469C100.972 28.4706 101.609 28.6324 102.317 28.6324ZM109.78 32H105.836V28.0559L106.474 24.4759L105.806 20.9566V10.0649H109.78V32ZM112.204 32V10.6717H115.117L123.763 24.5063H122.095L130.711 10.6717H133.624V32H129.528V17.7407L130.317 17.9834L124.31 27.6312H121.518L115.511 17.9834L116.33 17.7407V32H112.204ZM136.039 32V17.3463H140.013V32H136.039ZM140.013 23.8995L138.466 22.868C138.648 21.0679 139.174 19.652 140.044 18.6205C140.913 17.5688 142.167 17.0429 143.806 17.0429C144.514 17.0429 145.151 17.1642 145.717 17.4069C146.283 17.6294 146.799 18.0036 147.264 18.5295L144.776 21.3814C144.554 21.1386 144.281 20.9566 143.957 20.8353C143.654 20.7139 143.3 20.6532 142.895 20.6532C142.046 20.6532 141.348 20.9263 140.802 21.4724C140.276 21.9982 140.013 22.8073 140.013 23.8995ZM149.386 32V11.2481H153.361V32H149.386ZM145.958 20.8353V17.3463H156.789V20.8353H145.958Z" fill="white"/>
<path d="M74.9369 32L73.5297 31.4335L72.6909 33.5169H74.9369V32ZM83.5228 10.6717V9.15475H82.4982L82.1156 10.1052L83.5228 10.6717ZM86.8904 10.6717L88.2983 10.1069L87.9164 9.15475H86.8904V10.6717ZM95.446 32V33.5169H97.689L96.8539 31.4352L95.446 32ZM91.0469 32L89.6278 32.5361L89.9984 33.5169H91.0469V32ZM84.433 14.4944V12.9775H82.2382L83.0139 15.0305L84.433 14.4944ZM85.9499 14.4944L87.3665 15.037L88.1553 12.9775H85.9499V14.4944ZM79.245 32V33.5169H80.2884L80.6616 32.5426L79.245 32ZM79.4877 28.0256H77.9708V29.5425H79.4877V28.0256ZM79.4877 24.5669V23.05H77.9708V24.5669H79.4877ZM90.9558 24.5669H92.4728V23.05H90.9558V24.5669ZM90.9558 28.0256V29.5425H92.4728V28.0256H90.9558ZM76.3441 32.5665L84.93 11.2382L82.1156 10.1052L73.5297 31.4335L76.3441 32.5665ZM83.5228 12.1886H86.8904V9.15475H83.5228V12.1886ZM85.4825 11.2365L94.0381 32.5648L96.8539 31.4352L88.2983 10.1069L85.4825 11.2365ZM95.446 30.4831H91.0469V33.5169H95.446V30.4831ZM92.4659 31.4639L85.852 13.9583L83.0139 15.0305L89.6278 32.5361L92.4659 31.4639ZM84.433 16.0114H85.9499V12.9775H84.433V16.0114ZM84.5333 13.9518L77.8284 31.4574L80.6616 32.5426L87.3665 15.037L84.5333 13.9518ZM79.245 30.4831H74.9369V33.5169H79.245V30.4831ZM81.0047 28.0256V24.5669H77.9708V28.0256H81.0047ZM79.4877 26.0839H90.9558V23.05H79.4877V26.0839ZM89.4389 24.5669V28.0256H92.4728V24.5669H89.4389ZM90.9558 26.5086H79.4877V29.5425H90.9558V26.5086ZM98.0089 31.3022L98.8107 30.0145L98.0089 31.3022ZM95.4605 28.5717L94.1181 29.2782L94.1229 29.2874L94.1279 29.2964L95.4605 28.5717ZM95.4605 20.7746L94.1279 20.0498L94.1229 20.0589L94.1181 20.0681L95.4605 20.7746ZM97.9786 18.0441L97.1768 16.7563L97.1658 16.7633L97.9786 18.0441ZM104.471 17.68L103.78 19.0301L103.786 19.0335L103.793 19.0368L104.471 17.68ZM106.504 19.47L105.237 20.3037L105.249 20.3232L105.263 20.3422L106.504 19.47ZM107.353 22.0185H108.87V21.9862L108.869 21.954L107.353 22.0185ZM107.353 27.2368L108.869 27.3013L108.87 27.269V27.2368H107.353ZM106.534 29.8156L105.267 28.9819L106.534 29.8156ZM104.501 31.6359L103.798 30.2922L104.501 31.6359ZM104.259 28.1469L105.032 29.452L105.039 29.4478L105.046 29.4436L104.259 28.1469ZM105.563 26.7514L104.225 26.0375L104.22 26.0459L104.216 26.0544L105.563 26.7514ZM105.563 22.6253L104.207 23.3037L104.22 23.3311L104.235 23.3581L105.563 22.6253ZM104.259 21.2297L103.451 22.5134L103.478 22.5306L103.506 22.5467L104.259 21.2297ZM100.375 21.2297L99.5881 19.933L99.5776 19.9394L99.5671 19.946L100.375 21.2297ZM99.0708 22.6253L97.7426 21.8925L97.7328 21.9103L97.7234 21.9283L99.0708 22.6253ZM99.0708 26.7514L97.714 27.4298L97.7278 27.4572L97.7426 27.4842L99.0708 26.7514ZM100.406 28.1469L99.6185 29.4436L99.6356 29.4541L99.6531 29.464L100.406 28.1469ZM109.78 32V33.5169H111.297V32H109.78ZM105.836 32H104.319V33.5169H105.836V32ZM105.836 28.0559L104.343 27.7901L104.319 27.922V28.0559H105.836ZM106.474 24.4759L107.967 24.7417L108.016 24.4672L107.964 24.1933L106.474 24.4759ZM105.806 20.9566H104.289V21.0992L104.316 21.2393L105.806 20.9566ZM105.806 10.0649V8.54796H104.289V10.0649H105.806ZM109.78 10.0649H111.297V8.54796H109.78V10.0649ZM101.65 30.7864C100.556 30.7864 99.6244 30.5211 98.8107 30.0145L97.2071 32.5899C98.5374 33.4182 100.033 33.8203 101.65 33.8203V30.7864ZM98.8107 30.0145C97.9703 29.4912 97.2999 28.7788 96.7931 27.8469L94.1279 29.2964C94.875 30.6703 95.9036 31.7783 97.2071 32.5899L98.8107 30.0145ZM96.8028 27.8652C96.3221 26.9518 96.0672 25.9038 96.0672 24.6883H93.0333C93.0333 26.3449 93.3853 27.8859 94.1181 29.2782L96.8028 27.8652ZM96.0672 24.6883C96.0672 23.4488 96.3237 22.3915 96.8028 21.4811L94.1181 20.0681C93.3837 21.4634 93.0333 23.0153 93.0333 24.6883H96.0672ZM96.7931 21.4993C97.3037 20.5604 97.9691 19.8467 98.7914 19.3249L97.1658 16.7633C95.8846 17.5763 94.8712 18.683 94.1279 20.0498L96.7931 21.4993ZM98.7804 19.3318C99.5905 18.8274 100.531 18.5598 101.65 18.5598V15.5259C100.017 15.5259 98.5107 15.9258 97.1768 16.7563L98.7804 19.3318ZM101.65 18.5598C102.492 18.5598 103.191 18.7285 103.78 19.0301L105.163 16.3298C104.093 15.7821 102.911 15.5259 101.65 15.5259V18.5598ZM103.793 19.0368C104.411 19.3461 104.883 19.7657 105.237 20.3037L107.771 18.6363C107.114 17.6371 106.23 16.8634 105.15 16.3232L103.793 19.0368ZM105.263 20.3422C105.615 20.8432 105.809 21.41 105.838 22.083L108.869 21.954C108.817 20.7257 108.445 19.5935 107.745 18.5978L105.263 20.3422ZM105.836 22.0185V27.2368H108.87V22.0185H105.836ZM105.838 27.1723C105.809 27.8586 105.616 28.4506 105.267 28.9819L107.801 30.6493C108.463 29.6434 108.817 28.5162 108.869 27.3013L105.838 27.1723ZM105.267 28.9819C104.909 29.5261 104.429 29.9614 103.798 30.2922L105.205 32.9797C106.273 32.4205 107.148 31.6422 107.801 30.6493L105.267 28.9819ZM103.798 30.2922C103.186 30.6127 102.48 30.7864 101.65 30.7864V33.8203C102.922 33.8203 104.118 33.5491 105.205 32.9797L103.798 30.2922ZM102.317 30.1493C103.288 30.1493 104.213 29.9374 105.032 29.452L103.485 26.8419C103.212 27.0038 102.842 27.1154 102.317 27.1154V30.1493ZM105.046 29.4436C105.85 28.9556 106.479 28.2833 106.911 27.4483L104.216 26.0544C104.041 26.3926 103.8 26.6506 103.472 26.8503L105.046 29.4436ZM106.902 27.4652C107.359 26.6083 107.566 25.6589 107.566 24.658H104.532C104.532 25.2347 104.415 25.6808 104.225 26.0375L106.902 27.4652ZM107.566 24.658C107.566 23.6713 107.356 22.7346 106.892 21.8925L104.235 23.3581C104.418 23.689 104.532 24.1075 104.532 24.658H107.566ZM106.92 21.9469C106.489 21.0836 105.849 20.391 105.011 19.9126L103.506 22.5467C103.802 22.7156 104.031 22.9534 104.207 23.3037L106.92 21.9469ZM105.067 19.946C104.249 19.4308 103.324 19.1969 102.347 19.1969V22.2308C102.827 22.2308 103.177 22.3408 103.451 22.5134L105.067 19.946ZM102.347 19.1969C101.358 19.1969 100.421 19.4271 99.5881 19.933L101.163 22.5263C101.462 22.3446 101.84 22.2308 102.347 22.2308V19.1969ZM99.5671 19.946C98.7955 20.4318 98.1853 21.0901 97.7426 21.8925L100.399 23.3581C100.604 22.9873 100.863 22.7152 101.184 22.5134L99.5671 19.946ZM97.7234 21.9283C97.2917 22.7631 97.0988 23.6867 97.0988 24.658H100.133C100.133 24.0921 100.243 23.6605 100.418 23.3222L97.7234 21.9283ZM97.0988 24.658C97.0988 25.644 97.2894 26.5806 97.714 27.4298L100.428 26.073C100.245 25.7086 100.133 25.2496 100.133 24.658H97.0988ZM97.7426 27.4842C98.1927 28.3 98.823 28.9607 99.6185 29.4436L101.193 26.8503C100.856 26.6455 100.596 26.3758 100.399 26.0186L97.7426 27.4842ZM99.6531 29.464C100.468 29.9297 101.368 30.1493 102.317 30.1493V27.1154C101.85 27.1154 101.476 27.0115 101.158 26.8299L99.6531 29.464ZM109.78 30.4831H105.836V33.5169H109.78V30.4831ZM107.353 32V28.0559H104.319V32H107.353ZM107.33 28.3217L107.967 24.7417L104.98 24.2101L104.343 27.7901L107.33 28.3217ZM107.964 24.1933L107.296 20.674L104.316 21.2393L104.983 24.7586L107.964 24.1933ZM107.323 20.9566V10.0649H104.289V20.9566H107.323ZM105.806 11.5819H109.78V8.54796H105.806V11.5819ZM108.264 10.0649V32H111.297V10.0649H108.264ZM112.204 32H110.687V33.5169H112.204V32ZM112.204 10.6717V9.15475H110.687V10.6717H112.204ZM115.117 10.6717L116.403 9.86771L115.958 9.15475H115.117V10.6717ZM123.763 24.5063V26.0232H126.5L125.05 23.7023L123.763 24.5063ZM122.095 24.5063L120.807 23.7043L119.363 26.0232H122.095V24.5063ZM130.711 10.6717V9.15475H129.869L129.423 9.86974L130.711 10.6717ZM133.624 10.6717H135.141V9.15475H133.624V10.6717ZM133.624 32V33.5169H135.141V32H133.624ZM129.528 32H128.011V33.5169H129.528V32ZM129.528 17.7407L129.974 16.2908L128.011 15.6868V17.7407H129.528ZM130.317 17.9834L131.604 18.7852L132.646 17.1129L130.763 16.5335L130.317 17.9834ZM124.31 27.6312V29.1481H125.152L125.597 28.433L124.31 27.6312ZM121.518 27.6312L120.231 28.433L120.676 29.1481H121.518V27.6312ZM115.511 17.9834L115.08 16.5289L113.171 17.0947L114.223 18.7852L115.511 17.9834ZM116.33 17.7407H117.847V15.7091L115.899 16.2862L116.33 17.7407ZM116.33 32V33.5169H117.847V32H116.33ZM113.721 32V10.6717H110.687V32H113.721ZM112.204 12.1886H115.117V9.15475H112.204V12.1886ZM113.83 11.4757L122.477 25.3103L125.05 23.7023L116.403 9.86771L113.83 11.4757ZM123.763 22.9893H122.095V26.0232H123.763V22.9893ZM123.382 25.3082L131.999 11.4736L129.423 9.86974L120.807 23.7043L123.382 25.3082ZM130.711 12.1886H133.624V9.15475H130.711V12.1886ZM132.107 10.6717V32H135.141V10.6717H132.107ZM133.624 30.4831H129.528V33.5169H133.624V30.4831ZM131.045 32V17.7407H128.011V32H131.045ZM129.082 19.1905L129.871 19.4333L130.763 16.5335L129.974 16.2908L129.082 19.1905ZM129.029 17.1816L123.022 26.8294L125.597 28.433L131.604 18.7852L129.029 17.1816ZM124.31 26.1142H121.518V29.1481H124.31V26.1142ZM122.806 26.8294L116.799 17.1816L114.223 18.7852L120.231 28.433L122.806 26.8294ZM115.942 19.4378L116.761 19.1951L115.899 16.2862L115.08 16.5289L115.942 19.4378ZM114.813 17.7407V32H117.847V17.7407H114.813ZM116.33 30.4831H112.204V33.5169H116.33V30.4831ZM136.039 32H134.522V33.5169H136.039V32ZM136.039 17.3463V15.8293H134.522V17.3463H136.039ZM140.013 17.3463H141.53V15.8293H140.013V17.3463ZM140.013 32V33.5169H141.53V32H140.013ZM140.013 23.8995L139.172 25.1617L141.53 26.7339V23.8995H140.013ZM138.466 22.868L136.957 22.7153L136.865 23.6237L137.625 24.1301L138.466 22.868ZM140.044 18.6205L141.203 19.5983L141.208 19.5928L141.213 19.5872L140.044 18.6205ZM145.717 17.4069L145.119 18.8012L145.141 18.8104L145.162 18.8189L145.717 17.4069ZM147.264 18.5295L148.407 19.5267L149.283 18.5225L148.4 17.5244L147.264 18.5295ZM144.776 21.3814L143.658 22.4064L144.805 23.6568L145.92 22.3785L144.776 21.3814ZM143.957 20.8353L143.394 22.2437L143.409 22.2498L143.425 22.2556L143.957 20.8353ZM137.556 32V17.3463H134.522V32H137.556ZM136.039 18.8632H140.013V15.8293H136.039V18.8632ZM138.496 17.3463V32H141.53V17.3463H138.496ZM140.013 30.4831H136.039V33.5169H140.013V30.4831ZM140.855 22.6373L139.307 21.6058L137.625 24.1301L139.172 25.1617L140.855 22.6373ZM139.975 23.0206C140.137 21.4228 140.588 20.3287 141.203 19.5983L138.884 17.6427C137.76 18.9753 137.159 20.7129 136.957 22.7153L139.975 23.0206ZM141.213 19.5872C141.736 18.9544 142.519 18.5598 143.806 18.5598V15.5259C141.815 15.5259 140.091 16.1831 138.875 17.6538L141.213 19.5872ZM143.806 18.5598C144.339 18.5598 144.768 18.6506 145.119 18.8012L146.315 16.0127C145.533 15.6778 144.689 15.5259 143.806 15.5259V18.5598ZM145.162 18.8189C145.473 18.941 145.797 19.1606 146.128 19.5346L148.4 17.5244C147.801 16.8466 147.093 16.3179 146.272 15.995L145.162 18.8189ZM146.121 17.5323L143.633 20.3842L145.92 22.3785L148.407 19.5267L146.121 17.5323ZM145.895 20.3563C145.503 19.9288 145.026 19.6158 144.49 19.4149L143.425 22.2556C143.536 22.2974 143.605 22.3485 143.658 22.4064L145.895 20.3563ZM144.521 19.4268C144.001 19.2189 143.449 19.1363 142.895 19.1363V22.1702C143.151 22.1702 143.307 22.2089 143.394 22.2437L144.521 19.4268ZM142.895 19.1363C141.688 19.1363 140.59 19.5394 139.729 20.3997L141.875 22.545C142.107 22.3132 142.404 22.1702 142.895 22.1702V19.1363ZM139.729 20.3997C138.809 21.3199 138.496 22.5928 138.496 23.8995H141.53C141.53 23.0217 141.743 22.6766 141.875 22.545L139.729 20.3997ZM149.386 32H147.869V33.5169H149.386V32ZM149.386 11.2481V9.73119H147.869V11.2481H149.386ZM153.361 11.2481H154.878V9.73119H153.361V11.2481ZM153.361 32V33.5169H154.878V32H153.361ZM145.958 20.8353H144.441V22.3522H145.958V20.8353ZM145.958 17.3463V15.8293H144.441V17.3463H145.958ZM156.789 17.3463H158.306V15.8293H156.789V17.3463ZM156.789 20.8353V22.3522H158.306V20.8353H156.789ZM150.903 32V11.2481H147.869V32H150.903ZM149.386 12.7651H153.361V9.73119H149.386V12.7651ZM151.844 11.2481V32H154.878V11.2481H151.844ZM153.361 30.4831H149.386V33.5169H153.361V30.4831ZM147.475 20.8353V17.3463H144.441V20.8353H147.475ZM145.958 18.8632H156.789V15.8293H145.958V18.8632ZM155.272 17.3463V20.8353H158.306V17.3463H155.272ZM156.789 19.3183H145.958V22.3522H156.789V19.3183Z" fill=""/>
</svg>
